<svg xmlns="http://www.w3.org/2000/svg" viewBox="0 0 120 52" fill="none">
  <path d="M4 38 C4 36, 5 35, 7 35 L28 35 C30 35, 31 34, 32 32 L38 22 C39 20, 38 18, 36 18 L15 18 C13 18, 11 19, 10 21 L2 35 C1 37, 2 38, 4 38Z" stroke="#111" stroke-width="1.5" fill="#111"/>
  <path d="M32 40 C32 38, 33 37, 35 37 L56 37 C58 37, 60 36, 61 34 L72 14 C73 12, 72 10, 70 10 L49 10 C47 10, 45 11, 44 13 L33 33 C32 35, 32 38, 32 40Z" stroke="#111" stroke-width="1.5" fill="#111"/>
  <path d="M62 42 C62 40, 63 39, 65 39 L86 39 C88 39, 90 38, 91 36 L108 6 C109 4, 108 2, 106 2 L85 2 C83 2, 81 3, 80 5 L63 35 C62 37, 62 40, 62 42Z" stroke="#111" stroke-width="1.5" fill="#111"/>
</svg>
